<?xml version="1.0" encoding="utf-8"?>
<svg xmlns="http://www.w3.org/2000/svg">
<symbol id="agreement" viewBox="0 0 36 35">
<g id="agreement">
<path id="Vector" d="M29.6665 5.83329V23.3333H12.1665V5.83329H29.6665ZM29.6665 2.91663H12.1665C10.5623 2.91663 9.24984 4.22913 9.24984 5.83329V23.3333C9.24984 24.9375 10.5623 26.25 12.1665 26.25H29.6665C31.2707 26.25 32.5832 24.9375 32.5832 23.3333V5.83329C32.5832 4.22913 31.2707 2.91663 29.6665 2.91663ZM18.6853 20.4166L13.6248 15.3125L15.6665 13.2562L18.6853 16.2895L26.1665 8.74996L28.2082 10.8062L18.6853 20.4166ZM6.33317 8.74996H3.4165V29.1666C3.4165 30.7708 4.729 32.0833 6.33317 32.0833H26.7498V29.1666H6.33317V8.74996Z" fill="currentColor"/>
</g>

</symbol>
<symbol id="game-icons_feather" viewBox="0 0 55 56">
<g id="game-icons:feather" opacity="0.1">
<path id="Vector" d="M50.5634 2.64844L39.5526 5.85068L44.0106 2.8332C41.1962 3.46914 37.6405 4.71309 33.1718 6.7208L25.8778 14.3252L28.4667 9.01318C25.9638 10.4054 23.3104 12.2305 20.7538 14.3682L19.0565 21.2754L18.6913 16.1621C16.1669 18.4824 13.7929 21.0605 11.8271 23.7783C9.76133 26.625 8.14678 29.6328 7.33789 32.6299L4.31719 30.6103C4.58789 33.1562 5.42471 35.3691 6.79756 37.3994L3.18604 36.293C4.00674 38.8174 5.34844 40.4502 7.61719 41.7715C6.34639 45.3486 5.7502 49.0869 5.10996 52.8145L7.08652 53.1475C9.37891 30.2988 25.5556 15.7324 40.1757 9.27852L40.9169 11.1455C27.8437 17 17.6815 26.8828 12.3642 41.127C14.3085 41.1377 16.2099 40.9014 17.9716 40.4502L18.4979 33.9082L19.9052 39.8701C21.0761 39.4404 22.1503 38.9248 23.1063 38.3232L20.8827 33.6504L24.4062 37.3887C25.2655 36.7012 25.9745 35.9277 26.5116 35.0791C29.7772 29.9766 33.1933 24.9062 39.9179 20.6631L35.0087 18.9229L42.539 19.1484C43.7636 18.5254 45.0526 17.7627 46.0302 17.043L40.6913 16.6133L48.7157 14.7227C49.3388 14.0996 49.9188 13.4443 50.4452 12.7891C52.3036 10.4322 53.5604 7.97871 53.2597 5.74756C53.12 4.63145 52.454 3.58193 51.369 2.99434C51.1005 2.85469 50.8105 2.73115 50.5634 2.64844Z" fill="#222222"/>
</g>

</symbol>
<symbol id="la_hand-pointer" viewBox="0 0 19 21">
<g id="la:hand-pointer" opacity="0.4" clip-path="url(#clip0_156_454)">
<path id="Vector" d="M7.34918 0C6.16208 0 5.18426 1.01625 5.18426 2.25V11.1097L4.71086 10.5937L4.53045 10.4295C4.12906 10.0142 3.58573 9.78102 3.01934 9.78102C2.45295 9.78102 1.90962 10.0142 1.50823 10.4295C1.10862 10.8467 0.884277 11.4113 0.884277 12C0.884277 12.5886 1.10862 13.1533 1.50823 13.5705V13.5937L7.41701 19.6642L7.46176 19.6875L7.48413 19.7347C8.52258 20.5529 9.78925 20.997 11.0923 21H12.3335C13.1099 21.0017 13.879 20.844 14.5965 20.5359C15.3141 20.2279 15.9661 19.7756 16.515 19.205C17.064 18.6344 17.4991 17.9568 17.7954 17.211C18.0917 16.4652 18.2433 15.6659 18.2416 14.859V8.99999C18.2416 7.76624 17.2631 6.75 16.0767 6.75C15.7693 6.75 15.485 6.83775 15.2194 6.96075C14.9827 5.98575 14.129 5.25 13.1223 5.25C12.5695 5.25 12.0622 5.475 11.679 5.83575C11.2845 5.46115 10.7701 5.25237 10.2357 5.25C9.98915 5.2532 9.74497 5.30091 9.5141 5.391V2.25C9.5141 1.01625 8.53628 0 7.34918 0ZM7.34918 1.5C7.74969 1.5 8.07082 1.83375 8.07082 2.25V10.5H9.5141V7.5C9.5141 7.08375 9.83523 6.75 10.2357 6.75C10.6363 6.75 10.9574 7.08375 10.9574 7.5V10.5H12.4007V7.5C12.4007 7.08375 12.7218 6.75 13.1223 6.75C13.5228 6.75 13.8439 7.08375 13.8439 7.5V10.5H15.3551V8.99999C15.3551 8.58375 15.6762 8.24999 16.0767 8.24999C16.4765 8.24999 16.7983 8.58375 16.7983 8.99999V14.8597C16.7983 17.4577 14.8333 19.5 12.3328 19.5H11.093C10.0358 19.5 9.12225 19.1077 8.36381 18.5152L2.52285 12.5152C2.20172 12.1815 2.20172 11.8177 2.52285 11.484C2.8447 11.1502 3.19398 11.1502 3.51511 11.484L6.62754 14.7187V2.25C6.62754 1.83375 6.94867 1.5 7.34918 1.5Z" fill="#4F8FF0"/>
</g>
<defs>
<clipPath id="clip0_156_454">
<rect width="18.041" height="21" fill="white" transform="translate(0.854492)"/>
</clipPath>
</defs>

</symbol>
<symbol id="mail" viewBox="0 0 20 20">
<g id="32px/mail">
<path id="Vector" d="M3.33317 16.6666C2.87484 16.6666 2.48234 16.5033 2.15567 16.1766C1.82901 15.8499 1.66595 15.4577 1.66651 14.9999V4.99992C1.66651 4.54159 1.82984 4.14909 2.15651 3.82242C2.48317 3.49575 2.87539 3.3327 3.33317 3.33325H16.6665C17.1248 3.33325 17.5173 3.49659 17.844 3.82325C18.1707 4.14992 18.3337 4.54214 18.3332 4.99992V14.9999C18.3332 15.4583 18.1698 15.8508 17.8432 16.1774C17.5165 16.5041 17.1243 16.6671 16.6665 16.6666H3.33317ZM9.99984 10.8333L3.33317 6.66659V14.9999H16.6665V6.66659L9.99984 10.8333ZM9.99984 9.16659L16.6665 4.99992H3.33317L9.99984 9.16659ZM3.33317 6.66659V4.99992V14.9999V6.66659Z" fill="currentColor"/>
</g>

</symbol>
<symbol id="map" viewBox="0 0 32 32">
<g id="32px/map">
<path id="Vector" d="M15.9998 8.66675C16.8839 8.66675 17.7317 9.01794 18.3569 9.64306C18.982 10.2682 19.3332 11.116 19.3332 12.0001C19.3332 12.4378 19.247 12.8713 19.0794 13.2757C18.9119 13.6801 18.6664 14.0476 18.3569 14.3571C18.0473 14.6666 17.6799 14.9122 17.2754 15.0797C16.871 15.2472 16.4376 15.3334 15.9998 15.3334C15.1158 15.3334 14.2679 14.9822 13.6428 14.3571C13.0177 13.732 12.6665 12.8841 12.6665 12.0001C12.6665 11.116 13.0177 10.2682 13.6428 9.64306C14.2679 9.01794 15.1158 8.66675 15.9998 8.66675ZM15.9998 2.66675C18.4752 2.66675 20.8492 3.65008 22.5995 5.40042C24.3498 7.15076 25.3332 9.52473 25.3332 12.0001C25.3332 19.0001 15.9998 29.3334 15.9998 29.3334C15.9998 29.3334 6.6665 19.0001 6.6665 12.0001C6.6665 9.52473 7.64983 7.15076 9.40017 5.40042C11.1505 3.65008 13.5245 2.66675 15.9998 2.66675ZM15.9998 5.33341C14.2317 5.33341 12.536 6.03579 11.2858 7.28604C10.0355 8.53628 9.33317 10.232 9.33317 12.0001C9.33317 13.3334 9.33317 16.0001 15.9998 24.9467C22.6665 16.0001 22.6665 13.3334 22.6665 12.0001C22.6665 10.232 21.9641 8.53628 20.7139 7.28604C19.4636 6.03579 17.7679 5.33341 15.9998 5.33341Z" fill="currentColor"/>
</g>

</symbol>
<symbol id="phone" viewBox="0 0 20 20">
<g id="32px/phone">
<path id="Vector" d="M13.3332 0.833252H6.6665C5.28317 0.833252 4.1665 1.94992 4.1665 3.33325V16.6666C4.1665 18.0499 5.28317 19.1666 6.6665 19.1666H13.3332C14.7165 19.1666 15.8332 18.0499 15.8332 16.6666V3.33325C15.8332 1.94992 14.7165 0.833252 13.3332 0.833252ZM14.1665 14.9999H5.83317V3.33325H14.1665V14.9999ZM11.6665 17.4999H8.33317V16.6666H11.6665V17.4999Z" fill="currentColor"/>
</g>

</symbol>
<symbol id="show" viewBox="0 0 22 20">
<g id="20px/show">
<path id="Vector" d="M20.6098 9.7875C19.8533 7.88603 18.5399 6.24164 16.8321 5.05755C15.1243 3.87347 13.0968 3.20161 11.0003 3.125C8.90381 3.20161 6.87635 3.87347 5.16852 5.05755C3.4607 6.24164 2.14737 7.88603 1.39086 9.7875C1.33977 9.92482 1.33977 10.0752 1.39086 10.2125C2.14737 12.114 3.4607 13.7584 5.16852 14.9424C6.87635 16.1265 8.90381 16.7984 11.0003 16.875C13.0968 16.7984 15.1243 16.1265 16.8321 14.9424C18.5399 13.7584 19.8533 12.114 20.6098 10.2125C20.6609 10.0752 20.6609 9.92482 20.6098 9.7875ZM11.0003 15.625C7.59134 15.625 3.9894 13.1687 2.6837 10C3.9894 6.83125 7.59134 4.375 11.0003 4.375C14.4093 4.375 18.0112 6.83125 19.3169 10C18.0112 13.1687 14.4093 15.625 11.0003 15.625Z" fill="#4F8FF0"/>
<path id="Vector_2" d="M11.0003 6.25C10.2371 6.25 9.49091 6.46993 8.85627 6.88199C8.22162 7.29404 7.72698 7.87971 7.43488 8.56494C7.14279 9.25016 7.06636 10.0042 7.21527 10.7316C7.36418 11.459 7.73173 12.1272 8.27146 12.6517C8.81118 13.1761 9.49883 13.5333 10.2474 13.6779C10.9961 13.8226 11.772 13.7484 12.4772 13.4645C13.1824 13.1807 13.7851 12.7001 14.2092 12.0834C14.6332 11.4667 14.8596 10.7417 14.8596 10C14.8596 9.00544 14.453 8.05161 13.7292 7.34835C13.0055 6.64509 12.0239 6.25 11.0003 6.25ZM11.0003 12.5C10.4915 12.5 9.99406 12.3534 9.57096 12.0787C9.14786 11.804 8.8181 11.4135 8.62337 10.9567C8.42864 10.4999 8.37769 9.99723 8.47696 9.51227C8.57623 9.02732 8.82127 8.58186 9.18108 8.23223C9.5409 7.8826 9.99933 7.6445 10.4984 7.54804C10.9975 7.45157 11.5148 7.50108 11.9849 7.6903C12.455 7.87952 12.8569 8.19995 13.1396 8.61107C13.4223 9.0222 13.5732 9.50555 13.5732 10C13.5732 10.663 13.3021 11.2989 12.8196 11.7678C12.3371 12.2366 11.6827 12.5 11.0003 12.5Z" fill="#4F8FF0"/>
</g>

</symbol>

<symbol id="tag" viewBox="0 0 71 30">
<path d="M14.3055 23.8334L5.97217 15.5L14.3055 7.16669L15.7847 8.64585L8.9305 15.5L15.7847 22.3542L14.3055 23.8334Z" fill="currentColor"/>
<line x1="28.0734" y1="29.4424" x2="42.1012" y2="0.680956" stroke="currentColor" stroke-width="2"/>
<path d="M57.6877 23.8334L56.2085 22.3542L63.0627 15.5L56.2085 8.64585L57.6877 7.16669L66.021 15.5L57.6877 23.8334Z" fill="currentColor"/>
</symbol>

<symbol id="books" viewBox="0 0 28 40">
<rect width="4" height="40" fill="#4F8FF0"/>
<rect x="12" y="16" width="4" height="24" fill="#E6E6E6"/>
<rect x="24" y="16" width="4" height="24" fill="#E6E6E6"/>
</symbol>

</svg>