<svg width="19" height="21" viewBox="0 0 19 21" fill="none" xmlns="http://www.w3.org/2000/svg">
<g id="la:hand-pointer" opacity="0.4" clip-path="url(#clip0_156_454)">
<path id="Vector" d="M7.34918 0C6.16208 0 5.18426 1.01625 5.18426 2.25V11.1097L4.71086 10.5937L4.53045 10.4295C4.12906 10.0142 3.58573 9.78102 3.01934 9.78102C2.45295 9.78102 1.90962 10.0142 1.50823 10.4295C1.10862 10.8467 0.884277 11.4113 0.884277 12C0.884277 12.5886 1.10862 13.1533 1.50823 13.5705V13.5937L7.41701 19.6642L7.46176 19.6875L7.48413 19.7347C8.52258 20.5529 9.78925 20.997 11.0923 21H12.3335C13.1099 21.0017 13.879 20.844 14.5965 20.5359C15.3141 20.2279 15.9661 19.7756 16.515 19.205C17.064 18.6344 17.4991 17.9568 17.7954 17.211C18.0917 16.4652 18.2433 15.6659 18.2416 14.859V8.99999C18.2416 7.76624 17.2631 6.75 16.0767 6.75C15.7693 6.75 15.485 6.83775 15.2194 6.96075C14.9827 5.98575 14.129 5.25 13.1223 5.25C12.5695 5.25 12.0622 5.475 11.679 5.83575C11.2845 5.46115 10.7701 5.25237 10.2357 5.25C9.98915 5.2532 9.74497 5.30091 9.5141 5.391V2.25C9.5141 1.01625 8.53628 0 7.34918 0ZM7.34918 1.5C7.74969 1.5 8.07082 1.83375 8.07082 2.25V10.5H9.5141V7.5C9.5141 7.08375 9.83523 6.75 10.2357 6.75C10.6363 6.75 10.9574 7.08375 10.9574 7.5V10.5H12.4007V7.5C12.4007 7.08375 12.7218 6.75 13.1223 6.75C13.5228 6.75 13.8439 7.08375 13.8439 7.5V10.5H15.3551V8.99999C15.3551 8.58375 15.6762 8.24999 16.0767 8.24999C16.4765 8.24999 16.7983 8.58375 16.7983 8.99999V14.8597C16.7983 17.4577 14.8333 19.5 12.3328 19.5H11.093C10.0358 19.5 9.12225 19.1077 8.36381 18.5152L2.52285 12.5152C2.20172 12.1815 2.20172 11.8177 2.52285 11.484C2.8447 11.1502 3.19398 11.1502 3.51511 11.484L6.62754 14.7187V2.25C6.62754 1.83375 6.94867 1.5 7.34918 1.5Z" fill="#4F8FF0"/>
</g>
<defs>
<clipPath id="clip0_156_454">
<rect width="18.041" height="21" fill="white" transform="translate(0.854492)"/>
</clipPath>
</defs>
</svg>
